<?xml version="1.0" encoding="utf-8"?>
<!-- Generator: Adobe Illustrator 24.1.3, SVG Export Plug-In . SVG Version: 6.00 Build 0)  -->
<svg version="1.1" id="Layer_1" xmlns="http://www.w3.org/2000/svg" xmlns:xlink="http://www.w3.org/1999/xlink" x="0px" y="0px"
	 viewBox="0 0 416.3 140.5" style="enable-background:new 0 0 416.3 140.5;" xml:space="preserve">
<style type="text/css">
	.st0{fill:#706F6F;}
	.st1{fill:#004A9A;}
	.st2{fill-rule:evenodd;clip-rule:evenodd;fill:#EDEDED;}
	.st3{fill-rule:evenodd;clip-rule:evenodd;fill:#9DD8F7;}
	.st4{fill-rule:evenodd;clip-rule:evenodd;fill:#5DC6F2;}
	.st5{fill-rule:evenodd;clip-rule:evenodd;fill:#00A6E7;}
	.st6{fill-rule:evenodd;clip-rule:evenodd;fill:#0095DB;}
	.st7{fill-rule:evenodd;clip-rule:evenodd;fill:#0081C9;}
	.st8{fill-rule:evenodd;clip-rule:evenodd;fill:#004A9A;}
	.st9{fill-rule:evenodd;clip-rule:evenodd;fill:#C7E4E6;}
	.st10{fill-rule:evenodd;clip-rule:evenodd;fill:#CCEAFC;}
	.st11{fill:#004A9A;stroke:#004A9A;stroke-width:0.22;stroke-miterlimit:2.61;}
</style>
<path class="st0" d="M174.7,126.2v-24.8h2.7v24.8L174.7,126.2z M191.3,126.2h-2.7v-20.4c0-0.2,0-0.4-0.1-0.7
	c-0.1-0.3-0.2-0.5-0.4-0.7c-0.2-0.2-0.5-0.4-0.8-0.5c-0.5-0.2-1-0.2-1.5-0.2c-0.5,0-0.9,0.1-1.4,0.2c-0.3,0.1-0.6,0.3-0.8,0.6
	c-0.2,0.2-0.3,0.4-0.4,0.7c-0.1,0.2-0.1,0.4-0.1,0.7v20.4h-2.7v-21c0-0.4,0.1-0.7,0.1-1.1c0.1-0.5,0.3-1,0.7-1.4
	c0.4-0.5,1-0.9,1.6-1.2c1.9-0.7,4.1-0.7,6,0c0.6,0.3,1.2,0.7,1.6,1.2c0.3,0.4,0.6,0.9,0.7,1.4c0.1,0.4,0.1,0.7,0.1,1.1L191.3,126.2
	L191.3,126.2z M205.2,122.3c0,0.4,0,0.7-0.1,1.1c-0.1,0.5-0.3,1-0.7,1.4c-0.4,0.5-1,0.9-1.6,1.2c-1.9,0.7-4.1,0.7-6,0
	c-0.6-0.3-1.2-0.7-1.6-1.2c-0.3-0.4-0.6-0.9-0.7-1.4c-0.1-0.4-0.1-0.7-0.1-1.1v-0.9h2.7v0.3c0,0.2,0,0.5,0.1,0.7
	c0.1,0.3,0.2,0.5,0.4,0.7c0.2,0.2,0.5,0.4,0.8,0.6c0.4,0.2,0.9,0.2,1.4,0.2c0.5,0,1-0.1,1.5-0.2c0.3-0.1,0.6-0.3,0.9-0.5
	c0.2-0.2,0.3-0.4,0.4-0.7c0.1-0.2,0.1-0.4,0.1-0.6v-3.7c0-0.3-0.1-0.7-0.2-1c-0.2-0.4-0.6-0.7-1.1-0.9l-0.5-0.2
	c-0.2-0.1-0.3-0.1-0.5-0.2l-2.4-0.9c-0.1,0-0.1-0.1-0.2-0.1c-1-0.2-1.9-0.8-2.6-1.7c-0.5-0.7-0.7-1.5-0.7-2.3v-5.7
	c0-0.4,0.1-0.7,0.1-1.1c0.1-0.5,0.3-1,0.7-1.4c0.4-0.5,1-0.9,1.6-1.2c1.9-0.7,4.1-0.7,6,0c0.6,0.3,1.2,0.7,1.6,1.2
	c0.3,0.4,0.6,0.9,0.7,1.4c0.1,0.4,0.1,0.7,0.1,1.1v0.9h-2.7v-0.4c0-0.2,0-0.5-0.1-0.7c-0.1-0.3-0.2-0.5-0.4-0.7
	c-0.2-0.2-0.5-0.4-0.9-0.5c-0.5-0.2-1-0.2-1.5-0.2c-0.5,0-0.9,0.1-1.4,0.2c-0.3,0.1-0.6,0.3-0.8,0.6c-0.2,0.2-0.3,0.4-0.4,0.7
	c-0.1,0.2-0.1,0.4-0.1,0.7v4.6c0,0.3,0.1,0.7,0.2,1c0.2,0.4,0.6,0.7,1.1,0.8c0.1,0.1,0.2,0.1,0.3,0.1l0.4,0.1l1.3,0.5
	c0.5,0.2,1,0.4,1.4,0.5c0.4,0.1,0.7,0.2,1.1,0.4c0.4,0.1,0.7,0.3,1,0.6c0.3,0.3,0.5,0.6,0.8,0.9c0.4,0.6,0.6,1.4,0.6,2.1
	L205.2,122.3L205.2,122.3z M218.5,103.8h-4.1v22.4h-2.7v-22.4h-4.1v-2.4h10.8V103.8z M230,126.2l-3.4-10.6l-0.6,0.3l-0.5,0.2
	l-0.5,0.2c-0.3,0.1-0.5,0.2-0.7,0.3c-0.2,0.1-0.4,0.3-0.5,0.5c-0.2,0.2-0.2,0.5-0.3,0.8v8.3h-2.7v-21c0-0.4,0.1-0.7,0.1-1.1
	c0.1-0.5,0.3-1,0.7-1.4c0.4-0.5,1-0.9,1.6-1.2c1.9-0.7,4.1-0.7,6,0c0.6,0.3,1.2,0.7,1.6,1.2c0.3,0.4,0.6,0.9,0.7,1.4
	c0.1,0.4,0.1,0.7,0.1,1.1v5.8c0,0.7-0.2,1.5-0.6,2.1c-0.4,0.7-1.1,1.3-1.9,1.6l3.8,11.6H230z M223.4,113.9l0.7-0.3
	c0.3-0.1,0.6-0.2,0.9-0.3l1-0.4l0.9-0.3l0.4-0.1l0.4-0.1c0.4-0.1,0.8-0.5,1-0.9c0.1-0.3,0.2-0.7,0.2-1v-4.7c0-0.2,0-0.4-0.1-0.7
	c-0.1-0.3-0.2-0.5-0.4-0.7c-0.2-0.2-0.5-0.4-0.8-0.5c-0.5-0.2-1-0.2-1.5-0.2c-0.5,0-0.9,0.1-1.4,0.2c-0.3,0.1-0.6,0.3-0.8,0.6
	c-0.2,0.2-0.3,0.4-0.4,0.7c0,0.2-0.1,0.4-0.1,0.7L223.4,113.9L223.4,113.9z M245.6,122L245.6,122v0.3c0,0.4-0.1,0.7-0.1,1.1
	c-0.1,0.5-0.3,1-0.7,1.4c-0.4,0.5-1,0.9-1.6,1.2c-1.9,0.7-4.1,0.7-6,0c-0.6-0.3-1.2-0.7-1.6-1.2c-0.3-0.4-0.6-0.9-0.7-1.4
	c-0.1-0.4-0.1-0.7-0.1-1.1v-21h2.7v20.4c0,0.2,0,0.4,0.1,0.7c0.1,0.3,0.2,0.5,0.4,0.7c0.2,0.2,0.5,0.4,0.8,0.6
	c0.4,0.2,0.9,0.2,1.4,0.2c0.5,0,1-0.1,1.5-0.2c0.3-0.1,0.6-0.3,0.8-0.5c0.2-0.2,0.3-0.4,0.4-0.7c0.1-0.2,0.1-0.4,0.1-0.6v-20.4h2.7
	L245.6,122L245.6,122z M259.6,116.5v2.4h-10.8v-2.4H259.6z M272.9,103.8h-4.1v22.4h-2.7v-22.4h-4.1v-2.4h10.8V103.8z M285,126.2
	h-6.2c-0.6,0-1.1-0.1-1.6-0.4c-0.4-0.2-0.8-0.5-1.2-0.9c-0.3-0.4-0.5-0.8-0.7-1.3c-0.1-0.4-0.2-0.9-0.2-1.3v-17.1
	c0-0.5,0.1-0.9,0.2-1.3c0.1-0.5,0.4-0.9,0.7-1.3c0.3-0.4,0.7-0.7,1.1-0.9c0.5-0.3,1-0.4,1.6-0.4h6.3v2.4h-5.4c-0.5,0-1,0.2-1.3,0.6
	c-0.3,0.4-0.5,0.9-0.5,1.4v6.6h5.8v2.7h-5.8v6.7c0,0.5,0.2,1,0.5,1.4c0.3,0.4,0.8,0.6,1.3,0.6h5.4V126.2z M296.3,106.1v-0.4
	c0-0.2,0-0.5-0.1-0.7c-0.1-0.3-0.2-0.5-0.4-0.7c-0.2-0.2-0.5-0.4-0.8-0.5c-0.5-0.2-1-0.2-1.5-0.2c-0.5,0-0.9,0.1-1.4,0.2
	c-0.3,0.1-0.6,0.3-0.8,0.6c-0.2,0.2-0.3,0.4-0.4,0.7c0,0.2-0.1,0.4-0.1,0.7v16c0,0.2,0,0.4,0.1,0.7c0.1,0.3,0.2,0.5,0.4,0.7
	c0.2,0.2,0.5,0.4,0.8,0.6c0.4,0.2,0.9,0.2,1.4,0.2c0.5,0,1-0.1,1.5-0.2c0.3-0.1,0.6-0.3,0.8-0.5c0.2-0.2,0.3-0.4,0.4-0.7
	c0.1-0.2,0.1-0.4,0.1-0.6v-0.4h2.7v0.9c0,0.4-0.1,0.7-0.1,1.1c-0.1,0.5-0.3,1-0.7,1.4c-0.5,0.5-1,0.9-1.7,1.2c-1.9,0.7-4.1,0.7-6,0
	c-0.6-0.3-1.2-0.7-1.6-1.2c-0.3-0.4-0.6-0.9-0.7-1.4c-0.1-0.4-0.1-0.7-0.1-1.1v-17.1c0-0.4,0.1-0.7,0.1-1.1c0.1-0.5,0.3-1,0.7-1.4
	c0.4-0.5,1-0.9,1.6-1.2c1.9-0.7,4.1-0.7,6,0c0.6,0.3,1.2,0.7,1.6,1.2c0.3,0.4,0.6,0.9,0.7,1.4c0.1,0.4,0.1,0.7,0.1,1.1v0.9H296.3z
	 M310,101.4h2.7v24.8H310v-11.1h-6.1v11.1h-2.7v-24.8h2.7v11.1h6.1C310,112.5,310,101.4,310,101.4z M333,110.8v0.2
	c0,0.8-0.3,1.6-0.8,2.3c-0.6,0.8-1.5,1.4-2.6,1.7c-0.1,0-0.1,0-0.2,0.1l-1,0.4l-1,0.4c-0.4,0.1-0.7,0.3-1.1,0.4
	c-0.3,0.1-0.5,0.2-0.7,0.3c-0.2,0.2-0.4,0.3-0.5,0.5c-0.2,0.2-0.3,0.5-0.2,0.8v8.3h-2.7v-21c0-0.4,0.1-0.7,0.1-1.1
	c0.1-0.5,0.3-1,0.7-1.4c0.5-0.5,1-0.9,1.6-1.2c1.9-0.7,4.1-0.7,6,0c0.6,0.3,1.2,0.7,1.6,1.2c0.3,0.4,0.6,0.9,0.7,1.4
	c0.1,0.4,0.1,0.7,0.1,1.1L333,110.8L333,110.8z M324.8,113.9l0.7-0.3c0.3-0.1,0.6-0.2,0.9-0.3l1-0.4l0.9-0.3l0.4-0.1l0.4-0.1
	c0.5-0.1,0.8-0.4,1-0.9c0.1-0.3,0.2-0.7,0.2-1v-4.7c0-0.2,0-0.4-0.1-0.7c-0.1-0.3-0.2-0.5-0.4-0.7c-0.2-0.2-0.5-0.4-0.8-0.5
	c-0.5-0.2-1-0.2-1.5-0.2c-0.5,0-0.9,0.1-1.4,0.2c-0.3,0.1-0.6,0.3-0.8,0.6c-0.2,0.2-0.3,0.4-0.4,0.7c0,0.2-0.1,0.4-0.1,0.7
	L324.8,113.9L324.8,113.9z M346.9,122.9v1.2c0,0.3,0,0.6-0.1,0.8c0,0.2-0.1,0.5-0.2,0.7c-0.1,0.2-0.3,0.4-0.4,0.6
	c-0.4,0.4-0.9,0.7-1.5,0.8c-0.5,0.1-1.1,0.1-1.6-0.1c-0.5-0.2-1.1-0.4-1.7-0.6l-1.8-0.7l-0.6-0.2l-0.5-0.2c-0.3-0.1-0.5-0.2-0.8-0.3
	c-0.3-0.1-0.6-0.3-0.8-0.6c-0.3-0.3-0.5-0.6-0.6-1c-0.2-0.5-0.2-1.1-0.2-1.7v-20.2h2.7v19.1c0,0.1,0,0.1,0,0.2
	c0,0.8,0.3,1.5,0.9,1.9c0.3,0.2,0.6,0.4,0.9,0.5c0.3,0.1,0.6,0.2,0.9,0.3c0.5,0.2,1,0.3,1.5,0.4c0.3,0.1,0.6,0.1,0.8,0
	c0.2-0.1,0.3-0.3,0.3-0.5c0-0.3,0.1-0.6,0.1-0.9v-3l0,0v-18h2.7L346.9,122.9L346.9,122.9z M360.3,103.9h-4.1v22.4h-2.7v-22.4h-4.1
	v-2.4h10.8V103.9z M362.5,126.3v-3h2.7v3H362.5z M384.1,123.8v2.4h-5.8c-0.6,0-1.1-0.1-1.6-0.4c-0.4-0.2-0.8-0.5-1.1-0.9
	c-0.3-0.4-0.5-0.8-0.7-1.3c-0.1-0.4-0.2-0.9-0.2-1.3v-21h2.7v20.4c0,0.5,0.2,1,0.5,1.4c0.3,0.4,0.8,0.6,1.3,0.6L384.1,123.8
	L384.1,123.8z M397.4,103.8h-4.1v22.4h-2.7v-22.4h-4.1v-2.4h10.8V103.8z M410.5,121.5v0.9c0,0.5-0.1,0.9-0.2,1.3
	c-0.1,0.5-0.4,0.9-0.7,1.3c-0.3,0.4-0.7,0.7-1.1,0.9c-0.5,0.3-1,0.4-1.6,0.4h-7.2v-24.8h7.2c0.6,0,1.1,0.1,1.6,0.4
	c0.4,0.2,0.8,0.5,1.1,0.9c0.3,0.4,0.5,0.8,0.7,1.3c0.1,0.4,0.2,0.9,0.2,1.3V121.5L410.5,121.5z M407.8,106.2v-0.3
	c0-0.5-0.2-1-0.5-1.4c-0.3-0.4-0.8-0.6-1.3-0.6h-3.6v20h3.6c0.5,0,1-0.2,1.3-0.6c0.3-0.4,0.5-0.9,0.5-1.4L407.8,106.2L407.8,106.2z
	 M413.6,126.2v-3h2.7v3H413.6z"/>
<path class="st1" d="M200,62.4c1.8-0.3,3.7-0.5,5.6-0.5c1.9,0,3.8,0.2,5.7,0.5v27.4c-2.7,1-5.5,1.7-8.4,2c-2.5,0.3-5.1,0.5-7.6,0.5
	c-4.1,0.1-8.1-0.6-11.9-2.1c-3.3-1.3-6.2-3.4-8.5-6c-2.3-2.6-4.1-5.7-5.1-9.1c-1.2-3.7-1.7-7.6-1.7-11.5c0-3.9,0.6-7.8,1.8-11.5
	c1.1-3.4,2.8-6.5,5.1-9.2c2.3-2.6,5.1-4.7,8.3-6c3.5-1.5,7.4-2.2,11.2-2.2c2.3,0,4.6,0.1,6.9,0.5c2.3,0.4,4.6,1,6.7,2
	c-0.1,1.5-0.4,3.1-0.9,4.5c-0.5,1.5-1.1,3-1.7,4.5c-1.6-0.6-3.2-1-4.8-1.3c-1.7-0.3-3.3-0.4-5-0.4c-5,0-8.8,1.6-11.4,4.8
	c-2.7,3.2-4,8-4,14.4c0,6.4,1.3,11.1,4,14.2s6.5,4.7,11.6,4.7c0.8,0,1.6,0,2.4-0.2c0.7-0.1,1.3-0.2,1.9-0.3L200,62.4L200,62.4z"/>
<path class="st1" d="M237.1,73c-0.6-0.1-1.3-0.2-2-0.3c-0.6-0.1-1.3-0.1-1.9-0.1c-2.1-0.1-4.2,0.4-6,1.4c-1.5,0.9-2.3,2.6-2.2,4.3
	c-0.1,1.1,0.2,2.2,0.9,3.1c0.5,0.7,1.2,1.2,2,1.6c0.8,0.3,1.7,0.5,2.6,0.6c0.9,0.1,1.7,0.1,2.4,0.1c0.8,0,1.6-0.1,2.3-0.2
	c0.8-0.1,1.4-0.2,2-0.3L237.1,73L237.1,73z M237.1,65c0-1-0.2-2.1-0.6-3c-0.4-0.8-1-1.4-1.7-1.8c-0.8-0.5-1.7-0.8-2.7-0.9
	c-1.2-0.2-2.3-0.2-3.5-0.2c-3,0-6.1,0.6-8.9,1.6c-0.7-1.2-1.2-2.5-1.6-3.8c-0.4-1.4-0.6-2.8-0.5-4.3c4.2-1.5,8.7-2.2,13.2-2.3
	c5.4,0,9.6,1.3,12.6,3.9c3,2.6,4.5,6.7,4.5,12.4v23.2c-2.2,0.7-4.4,1.2-6.6,1.6c-2.9,0.5-5.8,0.8-8.8,0.8c-2.4,0-4.9-0.2-7.3-0.7
	c-2-0.4-3.9-1.2-5.7-2.3c-1.6-1.1-2.8-2.5-3.6-4.2c-0.9-2-1.3-4.1-1.3-6.3c-0.1-2.2,0.5-4.4,1.6-6.2c1-1.6,2.4-3,4.1-4
	c1.7-1,3.7-1.8,5.6-2.2c2-0.4,4.1-0.7,6.2-0.7c1.5,0,3.1,0.1,5,0.2L237.1,65L237.1,65z"/>
<path class="st1" d="M251.4,34.7c1.8-0.3,3.7-0.5,5.5-0.5c1.8,0,3.6,0.2,5.4,0.5v40.7c0,1.3,0.1,2.6,0.3,3.9
	c0.1,0.8,0.4,1.6,0.9,2.3c0.4,0.5,0.9,0.9,1.5,1.1c0.8,0.2,1.5,0.3,2.3,0.3c0.9,0,1.9-0.1,2.8-0.3c0.6,2,0.8,4.1,0.9,6.2V90
	c0,0.4-0.1,0.8-0.1,1.1c-1,0.3-2,0.5-3,0.5c-1.2,0.1-2.2,0.2-3.2,0.2c-4,0-7.2-1.1-9.6-3.3c-2.4-2.2-3.6-5.8-3.6-10.7L251.4,34.7
	L251.4,34.7z"/>
<path class="st1" d="M273.8,34.7c1.8-0.3,3.7-0.5,5.5-0.5c1.8,0,3.6,0.2,5.4,0.5v40.7c0,1.3,0.1,2.6,0.3,3.9
	c0.1,0.8,0.4,1.6,0.9,2.3c0.4,0.5,0.9,0.9,1.5,1.1c0.8,0.2,1.5,0.3,2.3,0.3c0.4,0,0.9,0,1.4-0.1c0.5,0,1-0.1,1.4-0.2
	c0.6,2,0.8,4.1,0.9,6.2V90c0,0.4-0.1,0.8-0.2,1.1c-1,0.3-2,0.5-3,0.5c-1.2,0.1-2.2,0.2-3.2,0.2c-3.5,0.2-6.9-1-9.6-3.3
	c-2.4-2.2-3.6-5.8-3.6-10.7L273.8,34.7L273.8,34.7z"/>
<path class="st1" d="M304.5,74.7c0.2,3.1,1.3,5.3,3.3,6.8c2.3,1.5,5,2.2,7.8,2.1c1.8,0,3.6-0.2,5.4-0.5c1.8-0.3,3.5-0.8,5.2-1.4
	c0.6,1.2,1.1,2.4,1.5,3.7c0.4,1.5,0.7,3.1,0.7,4.7c-4.4,1.6-9,2.4-13.6,2.3c-3.3,0.1-6.5-0.4-9.6-1.6c-2.5-0.9-4.7-2.4-6.5-4.3
	c-1.7-1.9-3-4.1-3.7-6.6c-0.8-2.7-1.2-5.5-1.2-8.3c0-2.8,0.4-5.6,1.2-8.3c0.8-2.5,2-4.8,3.7-6.8c1.7-1.9,3.7-3.5,6.1-4.5
	c2.6-1.2,5.5-1.7,8.4-1.7c2.6,0,5.1,0.5,7.4,1.5c2.1,0.9,4,2.3,5.5,4c1.6,1.8,2.7,3.8,3.5,6.1c0.8,2.4,1.2,5,1.2,7.6
	c0,1,0,1.9-0.1,2.9c-0.1,1-0.2,1.7-0.3,2.3L304.5,74.7z M320.3,67c0-2.2-0.7-4.3-2.1-6c-1.3-1.5-3.3-2.4-5.3-2.3
	c-2.2-0.2-4.3,0.6-5.9,2.2c-1.5,1.7-2.3,3.9-2.4,6.1H320.3z"/>
<path class="st1" d="M352.5,92.3c-2.9,0.1-5.8-0.5-8.5-1.6c-2.3-1-4.4-2.5-6-4.4c-1.6-1.9-2.8-4.2-3.6-6.6c-0.8-2.7-1.2-5.4-1.2-8.2
	c0-2.8,0.4-5.6,1.2-8.3c0.7-2.5,1.9-4.7,3.6-6.7c1.6-1.9,3.7-3.4,6-4.4c2.7-1.1,5.6-1.7,8.5-1.6c2.9-0.1,5.8,0.5,8.5,1.6
	c2.3,1,4.4,2.5,6,4.4c1.6,2,2.9,4.2,3.6,6.7c0.8,2.7,1.2,5.5,1.2,8.3c0,2.8-0.4,5.6-1.2,8.2c-0.7,2.4-1.9,4.7-3.6,6.6
	c-1.6,1.9-3.7,3.4-6,4.4C358.3,91.8,355.4,92.3,352.5,92.3L352.5,92.3z M352.5,83.9c2.9,0,5-1.1,6.2-3.2c1.3-2.1,1.9-5.2,1.9-9.3
	s-0.6-7.1-1.9-9.3s-3.4-3.2-6.2-3.2c-2.5-0.2-4.9,1.1-6.2,3.2c-1.3,2.1-1.9,5.2-1.9,9.3s0.6,7.1,1.9,9.3
	C347.6,82.8,350,84.1,352.5,83.9z"/>
<path class="st1" d="M374.8,51.3c0.7-0.2,1.4-0.3,2.2-0.3c0.8-0.1,1.6-0.1,2.4-0.1c0.8,0,1.6,0,2.3,0.1c0.7,0.1,1.4,0.2,2.1,0.3
	c0.2,0.4,0.3,0.7,0.4,1.1c0.1,0.5,0.3,1,0.4,1.5s0.2,1.1,0.3,1.6s0.1,1,0.2,1.3c0.6-0.8,1.2-1.6,1.9-2.3c0.8-0.8,1.6-1.5,2.5-2.1
	c1-0.6,2.1-1.1,3.2-1.5c1.3-0.4,2.6-0.6,4-0.6c4.5,0,8,1.2,10.3,3.7c2.3,2.5,3.5,6.4,3.5,11.7v25.6c-3.6,0.6-7.4,0.6-11,0V68.7
	c0.1-2.2-0.3-4.4-1.3-6.4c-0.9-1.6-2.7-2.4-4.5-2.3c-0.9,0-1.8,0.1-2.7,0.4c-1,0.3-1.8,0.8-2.5,1.5c-0.8,0.9-1.5,2-1.8,3.1
	c-0.5,1.7-0.8,3.5-0.7,5.3v21c-3.6,0.6-7.4,0.6-11,0L374.8,51.3L374.8,51.3z"/>
<g>
	<path class="st2" d="M54.7,104.4c5.3-1.3,10.9-2.5,16.8-3.5s12.3-1.8,18.8-2.4c-2.2,1.9-4.5,3.8-6.8,5.8c-7.4,0.6-14.8,1.7-22,3.5
		L54.7,104.4L54.7,104.4z"/>
	<path class="st2" d="M24.8,115.9c3.7-2.2,7.5-4.1,11.5-5.6c4.6-1.8,9.3-3.4,14.1-4.7l6.4,3.4c-5.5,1.4-10.7,3.6-15.6,6.4
		L24.8,115.9L24.8,115.9z"/>
	<path class="st2" d="M15.8,129.8c-0.8-2-0.6-4.3,0.6-6.1c1.6-2.5,3.8-4.6,6.3-6.2l16.4-0.3c-3.1,2.6-3.9,5-2.4,7.1
		C29.5,126.1,22.6,127.9,15.8,129.8z"/>
	<path class="st2" d="M43,140.1c-6.1-0.4-12-1.6-17.8-3.5c-4.2-1.5-7-3.3-8.7-5.2l21.3-5.6c2.9,2,8.4,3.5,16.5,4
		c-1.8,1.6-3.7,3.3-5.6,5.1S44.9,138.3,43,140.1L43,140.1z"/>
	<path class="st2" d="M106.1,134.8c-9.6,2.2-19.4,3.8-29.3,4.7c-9.1,0.9-18.3,1.2-27.5,0.8c1.9-1.9,3.8-3.6,5.6-5.4s3.7-3.5,5.4-5.2
		c9.9-0.1,19.8-1.2,29.5-3.4C89.8,126.4,106.1,134.8,106.1,134.8z"/>
	<path class="st2" d="M149.2,115.2c-2,3.2-6.3,6.4-12.3,9.5c-7.4,3.6-15.1,6.4-23,8.4c-6.3-3-12-5.8-17.2-8.3
		c8.9-2.5,15.8-5.7,19.1-9.1L149.2,115.2L149.2,115.2z"/>
	<path class="st2" d="M135.3,100.5c4.9,1.2,8.8,2.8,11.4,4.8c2.8,2.1,4.1,4.7,3.3,7.5l-32.8,0.7c1.5-3-0.6-5.5-5.1-7.1L135.3,100.5
		L135.3,100.5z"/>
	<path class="st2" d="M95.5,98.2c6.7-0.4,13.1-0.5,19-0.3c5.7,0.2,11.3,0.7,16.9,1.7l-22.6,5.8c-5-1.2-11.9-1.7-19.9-1.4
		C91.2,102,93.4,100,95.5,98.2L95.5,98.2z"/>
	<path class="st2" d="M85.5,107.1c2,0,3.9,0,5.7,0.1l5.3-2.1l5.8,0.7l-5.4,2.2c1.3,0.3,2.5,0.6,3.7,1.1l7.8-1.5
		c0.9,0.6,1.8,1.2,2.7,1.8l-8,1.5c0.2,1,0.2,2-0.2,3l-10,0.3c1.9-3.1-4.2-4.8-13.3-4.3s-18.6,3.1-21.8,6.1s1.5,5.5,10.9,5.3
		s19.2-2.9,23-5.8l27.9-0.1l29.7-0.2l0,0c-1.1,0.8-17.6,10.2-19.2,10.9c2.3,0.4-12.1-3-9.8-2.6l-28.6-3.2c-2,0.7-4.2,1.3-6.5,1.8
		c0.7,0.8,1.5,1.5,2.2,2.3l-8.6,1.5c-0.7-0.8-1.3-1.6-2-2.3c-2.4,0.3-4.8,0.6-7.2,0.7c-0.8,0.9-1.6,1.8-2.5,2.7l-7.7,0.1
		c0.8-0.9,1.7-1.8,2.6-2.7c-1.9-0.1-3.7-0.2-5.5-0.5l-5.7,2.3l-4.5-1.2c1.9-0.7,3.8-1.5,5.6-2.2c-0.9-0.3-1.8-0.8-2.6-1.4l-6.8,1.3
		c-0.3-0.7-0.6-1.3-0.8-2l6.7-1.3c0.1-0.7,0.3-1.4,0.8-1.9l-6.1,0.2c0.9-0.8,1.7-1.5,2.6-2.2l6-0.3c1.1-0.7,2.3-1.4,3.5-1.9l-4-0.8
		l5.1-2l4.2,0.7c1.7-0.6,3.5-1.1,5.3-1.5c-0.4-0.5-0.8-1-1.3-1.6l6.7-1.4c0.4,0.5,0.9,1,1.4,1.6c2-0.3,4.1-0.6,6.2-0.8
		c0.7-0.7,1.3-1.4,2-2l7-0.5C86.8,105.7,86.1,106.4,85.5,107.1L85.5,107.1z"/>
</g>
<path class="st3" d="M54.7,39.4c5.3-3.8,10.9-7,16.8-9.8c6-2.9,12.3-5.1,18.8-6.7C88.1,28,85.8,33.4,83.4,39
	c-7.9,1.8-15.3,5.1-22,9.7C59.1,45.4,56.8,42.3,54.7,39.4L54.7,39.4z"/>
<path class="st4" d="M24.8,71.5c3.3-5.6,7.1-10.8,11.5-15.7c4.3-4.8,9-9.2,14.1-13.2l6.3,9.6c-6.3,5-11.6,11.1-15.6,18L24.8,71.5z"
	/>
<path class="st5" d="M15.8,110.4c-0.8-5.7-0.7-11.4,0.6-17c1.3-6,3.4-11.9,6.3-17.4l16.4-0.9C35.8,82.3,35,89.2,36.5,95
	C29.5,100.1,22.6,105.3,15.8,110.4L15.8,110.4z"/>
<path class="st6" d="M43,139.4c-6.7-1.6-12.9-5-17.8-9.8c-4.1-4.1-7.1-9.1-8.7-14.6c7.1-5.2,14.2-10.5,21.3-15.8
	c2.9,5.7,8.4,9.8,16.5,11.2c-1.8,4.6-3.7,9.3-5.6,14.2S44.9,134.4,43,139.4z"/>
<path class="st7" d="M106.1,124.6c-9,5.8-18.9,10.3-29.3,13.2c-8.9,2.5-18.3,3.3-27.5,2.2c1.9-5.2,3.8-10.2,5.6-15.1
	c1.8-4.9,3.6-9.7,5.4-14.5c9.6,0,20-3.5,29.5-9.5C94.7,108.2,100.2,116.1,106.1,124.6L106.1,124.6z"/>
<path class="st8" d="M149.2,69.7c-2.3,9.5-6.5,18.5-12.3,26.5c-6.4,9-14.2,16.9-23,23.6c-6.3-8.4-12-16.1-17.2-23.1
	c8.9-7.1,15.8-16.1,19.1-25.4C126.1,70.7,137.2,70.2,149.2,69.7L149.2,69.7z"/>
<path class="st9" d="M135.3,28.3c4.9,3.4,8.9,8.1,11.4,13.5c3,6.6,4.1,13.9,3.3,21.1c-11.7,0.7-22.6,1.4-32.8,2
	c1.5-8.4-0.6-15.3-5.1-20C119.7,39.4,127.5,33.8,135.3,28.3L135.3,28.3z"/>
<path class="st10" d="M95.5,21.9c6.3-1.2,12.7-1.4,19-0.8c5.9,0.5,11.6,2.2,16.9,4.9l-22.6,16.3c-5-3.3-11.9-4.8-19.9-3.9
	C91.2,32.6,93.3,27.2,95.5,21.9z"/>
<path class="st8" d="M80.4,70.4l39-0.3c9.7-0.1,19.6-0.3,29.7-0.4l0,0c-1.1,2.3-17.6,28.4-19.1,30.5c2.3,1.1-12.1-8.3-9.8-7.2
	c-4.9-1.5-9.6-3.4-14.4-4.6l-33.3-8.1L80.4,70.4L80.4,70.4z"/>
<path class="st8" d="M82.5,63.4c-2.5-1.5-5.5-1.9-8.3-1.2c-3,0.8-5.8,2.5-7.8,4.9c-2.1,2.3-3.4,5.3-3.7,8.4c-0.7,5.2,3,10,8.2,10.7
	c1,0.1,2,0.1,3.1-0.1c3.7-0.6,7-2.5,9.4-5.4c2.4-2.7,3.6-6.3,3.5-9.9C86.6,67.8,85,65.1,82.5,63.4z"/>
<path class="st11" d="M0.2,88.5l1.9,1l0.3-1.2l0.4,0.2l-0.3,1.2l4.1,2.3c0.3,0.2,0.6,0.3,0.9,0.4c0.1,0,0.1,0,0.2,0
	c0.1,0,0.1-0.1,0.1-0.1c0-0.2,0-0.4-0.1-0.6c-0.1-0.1-0.3-0.5-0.7-1l0.2-0.2c0.5,0.5,0.8,1,1.1,1.6c0.1,0.3,0.2,0.6,0.1,0.9
	c0,0.2-0.2,0.4-0.3,0.5c-0.2,0.1-0.4,0.1-0.6,0.1c-0.4-0.1-0.8-0.3-1.2-0.5l-4-2.2L2,92.1l-0.3-0.1c0-0.5-0.1-1-0.4-1.5
	c-0.3-0.6-0.8-1.1-1.3-1.6L0.2,88.5z M6.6,87.6c0.2,0.1,0.4,0.2,0.6,0.2C7.6,88,8,87.9,8.4,87.7c0.4-0.2,0.7-0.6,0.8-1
	c0.1-0.3,0.1-0.7,0.1-1.1C9.2,85.1,9,84.5,8.8,84L9,83.9c0.7,1.1,1,2.5,0.7,3.8c-0.1,0.6-0.6,1.1-1.2,1.4c-0.5,0.2-1.1,0.2-1.6,0.1
	c-0.8-0.3-1.5-0.7-2-1.3c-0.6-0.6-1-1.4-1.3-2.2c-0.2-0.7-0.2-1.5,0-2.3c0.1-0.4,0.3-0.8,0.7-1c0.2-0.2,0.6-0.2,0.8-0.1
	c0.4,0.1,0.8,0.4,1,0.8c0.4,0.7,0.6,1.4,0.6,2.2C6.8,86,6.7,86.9,6.6,87.6L6.6,87.6z M6.2,87.5c0.1-0.6,0.2-1.3,0.1-1.9
	c0-0.6-0.2-1.1-0.6-1.6c-0.2-0.4-0.5-0.6-0.9-0.8c-0.2-0.1-0.4-0.1-0.6,0c-0.2,0.1-0.3,0.3-0.4,0.5c-0.1,0.6,0,1.3,0.3,1.8
	C4.7,86.3,5.4,87,6.2,87.5L6.2,87.5z M11.5,77.3c0.3,0.6,0.6,1.3,0.7,2c0.1,0.6,0,1.2-0.3,1.8c-0.2,0.6-0.6,1.1-1.2,1.3
	c-0.6,0.2-1.2,0.2-1.7-0.1c-0.7-0.3-1.4-0.8-1.9-1.5c-0.5-0.7-0.9-1.5-1-2.3c-0.2-0.8-0.1-1.5,0.2-2.3c0.1-0.4,0.4-0.8,0.8-1
	c0.3-0.1,0.6-0.1,0.9,0c0.3,0.1,0.5,0.3,0.6,0.6c0.1,0.2,0.1,0.4,0,0.6c-0.1,0.1-0.2,0.2-0.3,0.3c-0.1,0.1-0.3,0.1-0.4,0
	c-0.1,0-0.2-0.1-0.2-0.2c-0.1-0.1-0.1-0.2-0.2-0.3c0-0.1-0.1-0.2-0.1-0.3l-0.1-0.1c-0.1,0-0.2,0-0.3,0c-0.2,0.1-0.3,0.3-0.4,0.5
	c-0.2,0.5-0.2,1-0.1,1.6c0.2,0.6,0.5,1.2,0.9,1.7c0.5,0.6,1.2,1.2,1.9,1.5c0.4,0.2,0.9,0.2,1.3,0.1c0.4-0.2,0.7-0.5,0.9-0.9
	c0.2-0.4,0.2-0.8,0.2-1.2c-0.1-0.6-0.2-1.1-0.5-1.6L11.5,77.3L11.5,77.3z M5.7,68.1l5.6,5.3c-0.6-1-1.1-2.1-1.5-3.2
	c-0.2-0.5-0.2-1.1,0.1-1.6c0.1-0.2,0.3-0.4,0.5-0.4c0.2-0.1,0.5,0,0.7,0.1c0.4,0.2,0.7,0.5,1,0.8l2.4,2.3c0.1,0.2,0.3,0.3,0.5,0.4
	c0.1,0,0.1,0,0.2,0c0.1,0,0.1-0.1,0.1-0.1c0-0.1,0-0.2,0-0.3c-0.1-0.4-0.2-0.8-0.4-1.2l0.2-0.2c0.2,0.3,0.3,0.7,0.5,1
	c0.1,0.3,0.2,0.7,0.2,1c0,0.2,0,0.4-0.1,0.6c-0.1,0.2-0.2,0.3-0.4,0.3c-0.2,0.1-0.3,0.1-0.5,0c-0.4-0.2-0.7-0.5-1-0.8L11.5,70
	c-0.2-0.2-0.5-0.4-0.7-0.6c-0.1,0-0.2,0-0.3,0c-0.1,0-0.2,0.1-0.2,0.2c-0.1,0.2-0.1,0.3-0.1,0.5c0.1,0.6,0.3,1.1,0.5,1.6
	c0.1,0.2,0.5,0.8,1.1,2c0.2,0.4,0.5,0.7,0.8,1l1.2,1.1l-0.5,1l-6.6-6.2L6,70c-0.1-0.1-0.3-0.1-0.4,0c-0.1,0.1-0.2,0.2-0.3,0.3
	c-0.1,0.1-0.1,0.3-0.2,0.4l-0.1,0.2l-0.3-0.1L5.7,68.1L5.7,68.1z M12.5,63.6l2.5,2.7c-0.5-1.1-1-2.2-1.3-3.3
	c-0.1-0.5-0.1-1.1,0.2-1.6c0.1-0.2,0.3-0.4,0.5-0.4c0.2-0.1,0.5,0,0.7,0.1c0.3,0.2,0.7,0.5,0.9,0.8l2.3,2.5c0.1,0.2,0.3,0.3,0.5,0.5
	c0.1,0,0.1,0,0.2,0c0.1,0,0.1,0,0.1-0.1c0-0.1,0-0.2,0-0.2c-0.1-0.4-0.2-0.9-0.4-1.3l0.2-0.1c0.3,0.6,0.5,1.2,0.6,1.9
	c0,0.3,0,0.6-0.2,0.8c-0.1,0.1-0.2,0.3-0.4,0.3c-0.2,0-0.3,0-0.5-0.1c-0.3-0.3-0.7-0.5-0.9-0.9l-2.2-2.3c-0.2-0.2-0.4-0.4-0.7-0.6
	c-0.1,0-0.2,0-0.3,0c-0.1,0-0.2,0.1-0.2,0.2c-0.1,0.2-0.1,0.3-0.1,0.5c0,0.5,0.1,1.1,0.4,1.6c0.3,0.7,0.7,1.5,1.1,2.1
	c0.3,0.4,0.6,0.9,0.9,1.2l0.9,1l-0.6,1l-3.4-3.7c-0.2-0.3-0.5-0.5-0.8-0.7c-0.1,0-0.2,0-0.3,0c-0.1,0-0.2,0.1-0.3,0.2
	c0,0.1-0.1,0.2-0.1,0.3l-0.1,0.3l-0.3-0.1L12.5,63.6L12.5,63.6z M14.6,54.8c0.1-0.2,0.3-0.3,0.5-0.3c0.2,0,0.4,0,0.6,0.1
	c0.2,0.1,0.3,0.3,0.3,0.5c0,0.2,0,0.4-0.1,0.6c-0.1,0.2-0.3,0.3-0.5,0.3c-0.2,0-0.4,0-0.6-0.1c-0.2-0.1-0.3-0.3-0.3-0.5
	C14.4,55.2,14.5,55,14.6,54.8z M17.1,56.5l3.5,4.3c0.1,0.2,0.3,0.3,0.4,0.5c0.1,0,0.1,0.1,0.2,0.1c0.1,0,0.1,0,0.2-0.1
	c0-0.1,0.1-0.2,0.1-0.3c0-0.4-0.1-0.9-0.3-1.3l0.3-0.1c0.2,0.6,0.4,1.2,0.4,1.8c0,0.4-0.1,0.7-0.2,1c-0.1,0.2-0.3,0.3-0.4,0.3
	c-0.2,0-0.4,0-0.5-0.1c-0.3-0.2-0.5-0.4-0.7-0.7l-2.2-2.8c-0.2-0.3-0.5-0.6-0.7-0.8c-0.1-0.1-0.2-0.1-0.3,0c-0.1,0-0.2,0.1-0.3,0.2
	c-0.1,0.1-0.2,0.3-0.3,0.6L16,58.9L17.1,56.5L17.1,56.5z M25.5,54c0.2,0.7,0.2,1.4,0.1,2.1c-0.1,0.6-0.3,1.1-0.7,1.6
	c-0.3,0.5-0.9,0.9-1.5,1c-0.6,0.1-1.2-0.1-1.7-0.5c-0.6-0.5-1.1-1.2-1.4-1.9c-0.3-0.8-0.5-1.7-0.4-2.5c0-0.8,0.3-1.5,0.8-2.1
	c0.2-0.4,0.6-0.6,1-0.8c0.3-0.1,0.7,0,0.9,0.2c0.2,0.2,0.4,0.4,0.5,0.7c0.1,0.2,0,0.4-0.1,0.6c-0.1,0.1-0.2,0.2-0.4,0.2
	c-0.1,0-0.3,0-0.4-0.1c-0.1-0.1-0.1-0.1-0.2-0.2c0-0.1-0.1-0.2-0.1-0.4c0-0.1,0-0.2-0.1-0.3c0-0.1-0.1-0.1-0.1-0.1
	c-0.1-0.1-0.2-0.1-0.3,0c-0.2,0.1-0.4,0.2-0.5,0.4c-0.3,0.4-0.5,1-0.5,1.5c0,0.7,0.1,1.3,0.4,1.9c0.3,0.8,0.8,1.4,1.5,1.9
	c0.3,0.3,0.8,0.4,1.2,0.4c0.4-0.1,0.8-0.3,1.1-0.7c0.2-0.3,0.4-0.7,0.5-1.1c0.1-0.6,0.1-1.1,0-1.7L25.5,54L25.5,54z M26.9,44.1
	l2.9,4.6l0.4,0.6c0,0,0.1,0.1,0.1,0.1c0.1,0.1,0.1,0.1,0.2,0.1c0.1,0,0.1,0,0.2-0.1c0.1-0.1,0.1-0.2,0.1-0.3c0-0.4,0-0.8-0.1-1.2
	l0.3-0.1c0.2,0.5,0.2,1.1,0.2,1.6c0,0.4-0.2,0.7-0.4,1c-0.1,0.1-0.3,0.2-0.5,0.3c-0.2,0-0.3-0.1-0.5-0.2c-0.2-0.2-0.4-0.5-0.6-0.8
	l-0.3-0.5c0.2,0.9,0.3,1.8,0.1,2.6c-0.1,0.4-0.3,0.8-0.5,1.1c-0.3,0.3-0.6,0.4-1,0.4c-0.5,0-0.9-0.2-1.2-0.5
	c-0.7-0.6-1.1-1.4-1.4-2.3c-0.3-0.9-0.5-1.9-0.4-2.8c0-0.6,0.2-1.2,0.6-1.7c0.2-0.2,0.4-0.4,0.7-0.4c0.3,0,0.6,0,0.9,0.2l-0.5-0.8
	L26.9,44.1L26.9,44.1z M25.4,46.4c-0.2,0.3-0.4,0.7-0.4,1.1c0,0.8,0.2,1.6,0.5,2.3c0.3,0.8,0.7,1.4,1.3,2c0.2,0.2,0.5,0.3,0.8,0.4
	c0.2,0,0.5-0.1,0.6-0.2c0.4-0.6,0.5-1.4,0.3-2.2c-0.1-1.2-0.7-2.3-1.6-3.2c-0.2-0.2-0.5-0.4-0.9-0.5C25.9,46.1,25.6,46.2,25.4,46.4
	L25.4,46.4z M27.9,37.5l4.7,8.2c0.1,0.3,0.3,0.5,0.5,0.7c0.1,0,0.1,0.1,0.2,0.1c0.1,0,0.1,0,0.2-0.1c0.1-0.1,0.1-0.2,0.1-0.3
	c0-0.4,0-0.9-0.1-1.3h0.3c0.1,0.7,0.2,1.3,0.1,2c0,0.3-0.2,0.6-0.4,0.8c-0.3,0.3-0.7,0.3-0.9,0c-0.3-0.3-0.5-0.6-0.6-1l-3.7-6.5
	c-0.2-0.3-0.3-0.6-0.5-0.9c-0.1-0.1-0.2-0.1-0.3-0.1c-0.2,0-0.3,0.1-0.4,0.2c-0.1,0.1-0.2,0.2-0.3,0.4l-0.2-0.2L27.9,37.5L27.9,37.5
	z M31,35.7c0.1-0.1,0.3-0.2,0.5-0.2c0.2,0,0.4,0.1,0.5,0.2c0.1,0.1,0.2,0.3,0.2,0.5c0,0.4-0.4,0.7-0.9,0.7c-0.4,0-0.6-0.3-0.7-0.7
	C30.8,36,30.9,35.9,31,35.7L31,35.7z M33.2,37.8l2.6,4.9c0.1,0.2,0.2,0.4,0.3,0.6c0,0.1,0.1,0.1,0.2,0.1c0.1,0,0.1,0,0.2-0.1
	c0.1-0.1,0.1-0.2,0.1-0.3c0.1-0.4,0.1-0.9,0-1.3l0.3-0.1c0.1,0.6,0.1,1.2,0,1.8c0,0.4-0.2,0.7-0.4,1c-0.1,0.1-0.3,0.2-0.5,0.2
	c-0.2,0-0.4-0.1-0.5-0.2c-0.2-0.2-0.4-0.5-0.5-0.8l-1.7-3.2c-0.2-0.3-0.3-0.6-0.5-0.9c-0.1-0.1-0.2-0.1-0.3-0.1
	c-0.1,0-0.2,0.1-0.3,0.2c-0.2,0.2-0.3,0.4-0.5,0.5l-0.2-0.2L33.2,37.8z M35.6,32.9l0.9,1.9l0.9-0.8l0.2,0.4l-0.9,0.8l2,4.2
	c0.1,0.3,0.3,0.6,0.5,0.8c0,0.1,0.1,0.1,0.2,0.1c0,0,0.1,0,0.2,0c0.1-0.2,0.2-0.3,0.2-0.5c0-0.4,0-0.8,0-1.2h0.3
	c0.1,0.7,0.1,1.3,0,2c-0.1,0.3-0.2,0.6-0.4,0.8c-0.1,0.1-0.3,0.2-0.5,0.2c-0.2,0-0.4-0.1-0.5-0.3c-0.3-0.3-0.5-0.7-0.7-1.1l-2-4.1
	l-0.8,0.8l-0.2-0.3c0.3-0.4,0.5-0.9,0.6-1.4c0.1-0.7,0-1.3-0.1-2l0.3-0.2L35.6,32.9z M39.3,32.2c0.3,0.1,0.6,0.2,0.8,0.4
	c0.4,0.3,0.8,0.7,1.1,1.1l2.6,2.7c0-0.5,0-1.2-0.1-2.2c0-0.5-0.1-1.1-0.2-1.9c0-0.3-0.1-0.7-0.2-1c0-0.1-0.1-0.2-0.1-0.2
	c0,0-0.1-0.1-0.1-0.1c-0.1,0-0.2,0-0.3,0.1c-0.3,0.2-0.7,0.1-0.9-0.1c-0.1-0.1-0.2-0.3-0.2-0.5c0-0.2,0.1-0.4,0.3-0.5
	c0.2-0.1,0.4-0.2,0.6-0.1c0.3,0.1,0.5,0.2,0.7,0.5c0.3,0.4,0.5,0.8,0.5,1.3c0.1,0.9,0.2,1.9,0.3,2.8c0.1,1.3,0.1,2.8,0,4.5
	c0,0.8-0.1,1.6-0.3,2.4c-0.1,0.3-0.3,0.6-0.5,0.9c-0.1,0.1-0.3,0.1-0.4,0.1c-0.2,0-0.3-0.1-0.4-0.2c-0.2-0.3-0.2-0.8,0.1-1.1
	c0.1-0.1,0.2-0.1,0.2-0.1c0.1,0,0.2,0,0.2,0.1c0.1,0.1,0.2,0.1,0.3,0.1c0,0,0.1,0,0.1,0c0,0,0.1-0.1,0.1-0.2
	c0.1-0.4,0.2-0.8,0.3-1.3c0.1-0.6,0.1-1.1,0.1-1.7l-3.4-3.5c-0.3-0.4-0.7-0.7-1.2-0.9c-0.3,0-0.5,0.1-0.7,0.3l-0.4,0.4L38,34.1
	L39.3,32.2L39.3,32.2z M51.7,22.9l3.6,4.5c0.1-1.2,0.2-2.4,0.1-3.6c0-0.4-0.1-0.8-0.3-1.2c-0.1-0.1-0.1-0.2-0.2-0.2
	c-0.1,0-0.2,0-0.3,0c-0.1,0-0.3,0-0.4-0.1C54.1,22.2,54,22.1,54,22c-0.1-0.1-0.1-0.3-0.1-0.4c0-0.2,0.1-0.3,0.3-0.4
	c0.2-0.1,0.4-0.2,0.6-0.1c0.2,0.1,0.4,0.2,0.5,0.4c0.1,0.2,0.2,0.4,0.3,0.7c0.1,0.6,0.2,1.3,0.2,1.9c0,1,0,1.9-0.1,2.8
	s-0.2,1.6-0.2,2L55.3,29l-3.4-4.1l0.3,6.1L52,31.2c-1-1.4-2-2.8-3.1-4.1c-0.2-0.3-0.5-0.5-0.9-0.6c-0.2,0-0.4,0-0.6,0.2
	c-0.2,0.1-0.3,0.2-0.4,0.4l-0.2-0.2l1.5-1.6c1,0.8,1.9,1.8,2.7,2.9c0.4,0.5,0.7,0.9,0.8,1l-0.3-6L51.7,22.9L51.7,22.9z M56.9,16.2
	c0.2-0.1,0.4-0.1,0.6-0.1c0.2,0,0.4,0.2,0.5,0.4C58,16.6,58,16.8,58,17c-0.1,0.4-0.5,0.6-0.9,0.6c0,0,0,0,0,0
	c-0.2,0-0.4-0.2-0.5-0.4c-0.1-0.2-0.1-0.4-0.1-0.6C56.6,16.4,56.7,16.2,56.9,16.2L56.9,16.2z M58.4,18.8l1.4,5.4
	c0,0.2,0.1,0.4,0.2,0.6c0,0.1,0.1,0.1,0.2,0.1c0.1,0,0.1,0,0.2,0c0.1-0.1,0.1-0.2,0.2-0.3c0.1-0.4,0.2-0.8,0.3-1.3h0.3
	c0,0.6-0.2,1.2-0.4,1.8c-0.1,0.3-0.4,0.6-0.7,0.9c-0.2,0.1-0.3,0.1-0.5,0.1c-0.2,0-0.3-0.1-0.4-0.3c-0.1-0.3-0.2-0.6-0.3-0.9
	L58,21.4c-0.1-0.3-0.2-0.7-0.3-1c0-0.1-0.1-0.2-0.2-0.2c-0.1,0-0.2,0-0.3,0.1c-0.2,0.1-0.4,0.3-0.6,0.4l-0.2-0.3L58.4,18.8
	L58.4,18.8z M62,14.7l0.5,2.1l1.1-0.6l0.1,0.5l-1,0.6l1,4.6c0.1,0.3,0.1,0.6,0.3,0.9c0,0.1,0.1,0.1,0.2,0.1c0.1,0,0.1,0,0.2,0
	c0.2-0.1,0.3-0.3,0.3-0.5c0.1-0.4,0.2-0.8,0.3-1.2l0.3,0c0,0.7-0.2,1.3-0.5,1.9c-0.1,0.3-0.4,0.5-0.6,0.7c-0.2,0.1-0.4,0.1-0.6,0.1
	c-0.2-0.1-0.4-0.2-0.4-0.4c-0.2-0.4-0.3-0.8-0.4-1.2l-0.9-4.5l-1,0.5l-0.1-0.3c0.4-0.4,0.7-0.8,0.9-1.3c0.2-0.6,0.3-1.3,0.4-2
	L62,14.7L62,14.7z M66,10.5l1.2,7.6c0.1-1.2,0.4-2.3,0.8-3.4c0.2-0.5,0.5-1,1-1.2c0.2-0.1,0.4-0.1,0.7,0c0.2,0.1,0.4,0.3,0.5,0.5
	c0.2,0.4,0.3,0.8,0.3,1.2l0.5,3.2c0,0.2,0.1,0.4,0.1,0.7c0,0.1,0.1,0.1,0.1,0.1c0.1,0,0.1,0,0.2,0c0.1,0,0.1-0.1,0.2-0.2
	c0.2-0.4,0.3-0.8,0.4-1.2h0.3c-0.1,0.4-0.2,0.8-0.3,1.2c-0.1,0.3-0.2,0.7-0.4,0.9c-0.1,0.2-0.3,0.3-0.5,0.4c-0.3,0.2-0.7,0-0.8-0.3
	c0,0,0,0,0,0c-0.1-0.4-0.2-0.8-0.3-1.3l-0.5-3.1c0-0.3-0.1-0.6-0.2-0.9c0-0.1-0.1-0.1-0.2-0.2c-0.1,0-0.2,0-0.3,0
	c-0.2,0.1-0.3,0.2-0.4,0.4c-0.3,0.5-0.5,1-0.6,1.6c0,0.2-0.1,0.9-0.3,2.3c0,0.4,0,0.8,0,1.3l0.2,1.6l-1,0.5l-1.4-9l-0.2-1
	c-0.1-0.1-0.2-0.2-0.3-0.2c-0.1-0.1-0.3-0.1-0.4,0c-0.1,0.1-0.2,0.1-0.4,0.2l-0.1,0.1L63.8,12L66,10.5L66,10.5z M80.1,9.1l0.3,2.4
	l-0.3,0.1c-0.1-0.5-0.5-1-0.9-1.3c-0.3-0.2-0.7-0.3-1.1-0.1c-0.3,0.1-0.5,0.2-0.6,0.5c-0.1,0.2-0.1,0.5-0.1,0.7
	c0.1,0.2,0.1,0.3,0.3,0.4c0.2,0.2,0.4,0.3,0.7,0.4c0.6,0.3,1.2,0.7,1.7,1.1c0.3,0.2,0.5,0.5,0.6,0.9c0.2,0.5,0.1,1.1-0.2,1.5
	c-0.3,0.5-0.8,0.9-1.4,1.1c-0.4,0.1-0.8,0.2-1.3,0.2c-0.1,0-0.3,0-0.4,0c-0.2,0.1-0.4,0.3-0.4,0.5l-0.3,0.1l-0.4-2.5l0.3-0.1
	c0.2,0.6,0.5,1.1,1,1.4c0.4,0.2,0.9,0.2,1.3,0.1c0.3-0.1,0.6-0.3,0.8-0.6c0.1-0.3,0.2-0.6,0.1-0.9c-0.1-0.2-0.2-0.4-0.3-0.5
	c-0.4-0.3-0.8-0.6-1.3-0.9c-0.4-0.2-0.9-0.5-1.2-0.9c-0.2-0.2-0.3-0.4-0.4-0.7c-0.2-0.4-0.1-0.9,0.1-1.4c0.2-0.4,0.7-0.8,1.1-0.9
	c0.1,0,0.3-0.1,0.4-0.1h0.5c0.2,0,0.4,0,0.5,0c0.2-0.1,0.4-0.3,0.4-0.5L80.1,9.1L80.1,9.1z M83.4,4.9c0.2-0.1,0.4,0,0.6,0.1
	c0.2,0.1,0.3,0.3,0.4,0.5c0.1,0.2,0,0.4-0.1,0.6c-0.1,0.2-0.3,0.3-0.5,0.4c-0.2,0.1-0.4,0-0.6-0.1c-0.2-0.1-0.3-0.3-0.4-0.4
	c-0.1-0.2,0-0.4,0.1-0.6C83.1,5.1,83.2,5,83.4,4.9L83.4,4.9z M84.3,7.8v5.6c0,0.2,0,0.4,0,0.7c0,0.1,0.1,0.1,0.1,0.2
	c0.1,0,0.1,0,0.2,0c0.1,0,0.2-0.1,0.2-0.2c0.2-0.4,0.4-0.8,0.6-1.2l0.3,0.1c-0.1,0.6-0.4,1.1-0.7,1.6c-0.2,0.3-0.5,0.5-0.8,0.7
	c-0.2,0.1-0.4,0.1-0.5,0c-0.2-0.1-0.3-0.2-0.3-0.4c-0.1-0.3-0.1-0.6-0.1-0.9v-3.6c0-0.4,0-0.7,0-1.1C83.2,9.1,83.1,9,83,9
	c-0.1,0-0.2,0-0.3,0c-0.2,0.1-0.4,0.2-0.7,0.3L81.9,9C81.9,9,84.3,7.8,84.3,7.8z M88.8,6.6l-0.3,3.6c0.2-0.7,0.5-1.4,0.8-2
	c0.3-0.6,0.7-1.1,1.1-1.6c0.2-0.2,0.5-0.3,0.8-0.4c0.2-0.1,0.5,0,0.7,0.1c0.2,0.1,0.3,0.3,0.4,0.6c0,0.3,0,0.7,0,1l-0.2,2
	c0.3-1.3,0.9-2.5,1.7-3.7c0.3-0.4,0.7-0.6,1.1-0.7c0.2-0.1,0.4,0,0.6,0.1c0.2,0.2,0.3,0.4,0.4,0.7c0,0.3,0,0.7,0,1l-0.3,3.1
	c0,0.4-0.1,0.7-0.1,1.1c0,0.1,0,0.1,0.1,0.2c0,0,0.1,0,0.1,0c0.1,0,0.2-0.1,0.2-0.2c0.3-0.3,0.5-0.6,0.6-1l0.3,0.1
	c-0.1,0.3-0.3,0.7-0.5,0.9c-0.2,0.3-0.4,0.6-0.7,0.9c-0.2,0.2-0.4,0.3-0.6,0.3c-0.2,0-0.3,0-0.5-0.1c-0.1-0.1-0.2-0.2-0.3-0.4
	c-0.1-0.5-0.1-1,0-1.5l0.2-2.5c0.1-0.6,0.1-0.9,0.1-1V6.8c0-0.1-0.1-0.2-0.1-0.3c-0.1-0.1-0.1-0.1-0.2-0.1c-0.3,0.1-0.5,0.2-0.6,0.4
	c-0.6,0.9-1.1,1.9-1.4,3c-0.3,1-0.5,2.1-0.6,3.1l-1.1,0.2L91,8.5c0-0.3,0-0.7,0-1c0-0.1-0.1-0.2-0.1-0.3c-0.1-0.1-0.1-0.1-0.2-0.1
	c-0.2,0-0.4,0.1-0.5,0.3c-0.4,0.4-0.7,0.9-0.9,1.5c-0.3,0.6-0.6,1.3-0.7,2c-0.1,0.3-0.2,1.2-0.4,2.8L87,14l0.4-5.1l0.1-0.7
	c0-0.1,0-0.1,0-0.2c0-0.1-0.1-0.2-0.2-0.3c-0.1-0.1-0.3-0.1-0.4-0.1c-0.2,0.1-0.4,0.1-0.5,0.2l-0.1-0.3L88.8,6.6L88.8,6.6z
	 M100.7,4.5l-0.4,1.8c0.4-0.6,0.8-1.1,1.4-1.5c0.4-0.3,0.8-0.5,1.3-0.5c0.4,0,0.9,0.1,1.2,0.4c0.4,0.4,0.6,0.8,0.6,1.4
	c0.1,1.3-0.3,2.5-1.1,3.5c-0.6,1.1-1.7,1.8-3,2c-0.2,0-0.4,0-0.7,0c-0.2,0-0.5-0.1-0.7-0.2l-0.4,2c-0.1,0.2-0.1,0.5-0.1,0.8
	c0,0.1,0,0.2,0.1,0.3c0.1,0.1,0.2,0.1,0.3,0.2c0.3,0,0.5,0,0.8,0v0.3l-3.6,0.3v-0.3c0.3,0,0.7-0.1,0.9-0.3c0.2-0.4,0.4-0.8,0.4-1.2
	l1.3-6.8c0.1-0.3,0.1-0.5,0.1-0.8c0-0.1-0.1-0.2-0.1-0.3c-0.1-0.1-0.2-0.1-0.4-0.1c-0.2,0-0.3,0.1-0.6,0.1V5.1L100.7,4.5L100.7,4.5z
	 M99.5,10.7c0.3,0.3,0.8,0.5,1.3,0.4c0.3,0,0.6-0.1,0.8-0.3c0.3-0.2,0.5-0.4,0.7-0.7c0.3-0.3,0.5-0.7,0.7-1.1
	c0.2-0.4,0.3-0.9,0.4-1.4c0.1-0.5,0.2-1,0.1-1.5c0-0.3-0.1-0.7-0.4-0.9C103,5.1,102.8,5,102.5,5c-0.6,0.1-1.2,0.5-1.5,1.1
	c-0.5,0.7-0.8,1.5-1,2.3L99.5,10.7L99.5,10.7z M110.2,0.1l-2.4,9.1c-0.1,0.3-0.1,0.6-0.2,0.8c0,0.1,0,0.1,0.1,0.2
	c0,0.1,0.1,0.1,0.2,0.1c0.1,0,0.2-0.1,0.3-0.1c0.3-0.3,0.6-0.6,0.8-1l0.2,0.2c-0.3,0.6-0.8,1-1.3,1.4c-0.2,0.2-0.5,0.3-0.8,0.3
	c-0.2,0-0.4-0.1-0.5-0.2c-0.1-0.1-0.2-0.3-0.2-0.4c0-0.4,0.1-0.8,0.2-1.1l1.9-7.2c0.1-0.3,0.2-0.7,0.2-1c0-0.1-0.1-0.2-0.2-0.3
	c-0.1-0.1-0.3-0.1-0.4-0.1c-0.2,0-0.4,0-0.5,0.1V0.6L110.2,0.1L110.2,0.1z"/>
<path class="st11" d="M113.9,1.1c0.4,0,0.7,0.4,0.7,0.8c0,0,0,0,0,0c0,0.2-0.1,0.4-0.2,0.5c-0.3,0.3-0.8,0.3-1.1,0c0,0,0,0,0,0
	c-0.1-0.1-0.2-0.3-0.2-0.5c0-0.2,0.1-0.4,0.2-0.5C113.5,1.2,113.7,1.1,113.9,1.1L113.9,1.1z M113.9,4.1l-1.7,5.3
	c-0.1,0.2-0.1,0.4-0.2,0.6c0,0.1,0,0.1,0.1,0.2c0,0,0.1,0.1,0.2,0.1c0.1,0,0.2-0.1,0.3-0.1c0.3-0.3,0.7-0.6,0.9-0.9l0.3,0.2
	c-0.3,0.5-0.8,0.9-1.3,1.3c-0.3,0.2-0.6,0.4-1,0.4c-0.2,0-0.4-0.1-0.5-0.2c-0.1-0.1-0.2-0.3-0.2-0.5c0-0.3,0.1-0.6,0.2-0.9l1.1-3.4
	c0.1-0.3,0.2-0.7,0.3-1c0-0.1,0-0.2-0.1-0.3c-0.1-0.1-0.2-0.1-0.3-0.1c-0.2,0-0.5,0-0.7,0V4.4L113.9,4.1L113.9,4.1z M120.6,10
	c-0.5,0.5-1.1,0.9-1.7,1.2c-0.5,0.2-1.1,0.3-1.7,0.3c-0.6,0-1.2-0.3-1.6-0.8c-0.4-0.5-0.5-1.1-0.5-1.7c0.1-0.8,0.4-1.6,0.9-2.2
	c0.5-0.7,1.2-1.3,1.9-1.6c0.7-0.4,1.5-0.5,2.2-0.5c0.4,0,0.9,0.2,1.2,0.5c0.2,0.2,0.4,0.6,0.3,0.9c0,0.3-0.2,0.6-0.4,0.8
	c-0.1,0.1-0.3,0.2-0.6,0.2c-0.1,0-0.3-0.1-0.4-0.2c-0.1-0.1-0.1-0.3-0.1-0.4c0-0.1,0-0.2,0.1-0.3c0.1-0.1,0.2-0.2,0.3-0.3
	c0.1-0.1,0.2-0.1,0.3-0.2c0,0,0-0.1,0-0.2c0-0.1,0-0.2-0.1-0.3c-0.2-0.1-0.4-0.2-0.6-0.2c-0.5,0-1.1,0.1-1.5,0.4
	c-0.6,0.3-1,0.8-1.4,1.3c-0.5,0.7-0.8,1.5-0.9,2.3c-0.1,0.4,0,0.9,0.3,1.3c0.3,0.4,0.7,0.6,1.2,0.6c0.4,0,0.8,0,1.2-0.2
	c0.5-0.2,1-0.5,1.4-0.9L120.6,10L120.6,10z M126.5,2.9c0.4,0.1,0.7,0.5,0.6,0.9c0,0,0,0,0,0c0,0.2-0.2,0.4-0.3,0.5
	c-0.2,0.1-0.4,0.2-0.6,0.1c-0.2,0-0.4-0.1-0.5-0.3c-0.1-0.2-0.2-0.4-0.1-0.6c0-0.2,0.2-0.4,0.3-0.5C126.1,2.9,126.3,2.8,126.5,2.9z
	 M126,5.9l-2.5,5c-0.1,0.2-0.2,0.4-0.3,0.6c0,0.1,0,0.1,0,0.2c0,0.1,0.1,0.1,0.2,0.1c0.1,0,0.2,0,0.3-0.1c0.4-0.2,0.7-0.5,1.1-0.8
	l0.2,0.2c-0.4,0.4-0.9,0.8-1.5,1.1c-0.3,0.2-0.7,0.2-1,0.2c-0.2,0-0.4-0.1-0.5-0.3c-0.1-0.1-0.1-0.3-0.1-0.5
	c0.1-0.3,0.2-0.6,0.4-0.9l1.6-3.2c0.2-0.3,0.3-0.7,0.4-1c0-0.1,0-0.2-0.1-0.3c-0.1-0.1-0.2-0.1-0.3-0.2c-0.2,0-0.5,0-0.7,0l0.1-0.3
	L126,5.9L126,5.9z M131.8,5.6l-1.1,1.8l1.1,0.3l-0.3,0.4l-1.1-0.3l-2.5,4c-0.2,0.3-0.3,0.5-0.5,0.8c0,0.1,0,0.1,0,0.2
	c0,0.1,0.1,0.1,0.1,0.1c0.2,0,0.4,0,0.6-0.1c0.3-0.2,0.7-0.4,1-0.7l0.2,0.3c-0.5,0.4-1.1,0.8-1.7,1c-0.3,0.1-0.6,0.1-0.9,0
	c-0.2-0.1-0.4-0.2-0.5-0.4c-0.1-0.2-0.1-0.4-0.1-0.6c0.1-0.4,0.3-0.8,0.6-1.1l2.4-3.9l-1.1-0.3l0.1-0.3c0.5,0,1-0.1,1.5-0.3
	c0.6-0.3,1.2-0.7,1.6-1.2L131.8,5.6L131.8,5.6z M134.8,8.7c0,0.3,0,0.6,0,0.9c-0.1,0.5-0.3,1-0.4,1.5l-1.2,3.6
	c0.4-0.2,1.1-0.6,1.9-1c0.4-0.2,0.9-0.6,1.6-1c0.3-0.2,0.5-0.4,0.8-0.6c0.1-0.1,0.1-0.1,0.1-0.2c0,0,0-0.1,0-0.1
	c-0.1-0.1-0.1-0.2-0.2-0.2c-0.1-0.1-0.2-0.2-0.2-0.4c-0.1-0.2-0.1-0.3,0-0.5c0.1-0.2,0.2-0.3,0.4-0.4c0.2-0.1,0.3-0.1,0.5,0
	c0.2,0.1,0.4,0.3,0.4,0.5c0.1,0.3,0,0.5-0.1,0.8c-0.2,0.4-0.5,0.8-0.9,1.1c-0.8,0.6-1.5,1.1-2.4,1.5c-1.1,0.7-2.5,1.3-4,2
	c-0.7,0.4-1.5,0.6-2.2,0.8c-0.3,0.1-0.7,0-1-0.1c-0.1-0.1-0.3-0.2-0.3-0.3c-0.1-0.1-0.1-0.3,0-0.5c0.1-0.2,0.2-0.3,0.4-0.4
	c0.2-0.1,0.4-0.1,0.6,0c0.1,0,0.2,0.1,0.2,0.2c0,0.1,0,0.2,0,0.3c0,0.1,0,0.2,0,0.3c0,0,0,0.1,0.1,0.1c0.1,0,0.1,0,0.2,0
	c0.4-0.1,0.8-0.2,1.2-0.4c0.5-0.2,1-0.4,1.5-0.7l1.6-4.6c0.2-0.5,0.3-1,0.3-1.5c-0.1-0.2-0.3-0.4-0.5-0.5c-0.2-0.1-0.4-0.1-0.6-0.2
	l0.1-0.3L134.8,8.7L134.8,8.7z"/>
</svg>
